<svg xmlns="http://www.w3.org/2000/svg" xmlns:xlink="http://www.w3.org/1999/xlink" width="44" height="44">
  <defs>
    <circle id="a" cx="22" cy="22" r="22"/>
  </defs>
  <g fill="none" fill-rule="evenodd">
    <path d="M0 0h44v44H0z"/>
    <use fill="#323437" xlink:href="#a"/>
    <circle cx="22" cy="22" r="21" stroke="#323437" stroke-width="2"/>
    <path fill="#FFF" d="M13 18h3v14h-3V18zm1-1c-1 0-2-1-2-3l2-2c2 0 3 1 3 2 0 2-1 3-3 3zm18 15h-4v-7c0-2-1-3-3-3l-2 2v8h-4V18h4v3c0-1 2-3 4-3 3 0 5 2 5 6v8z"/>
  </g>
</svg>
