<svg xmlns="http://www.w3.org/2000/svg" xmlns:xlink="http://www.w3.org/1999/xlink" width="50" height="50">
  <defs>
    <circle id="a" cx="25" cy="25" r="25"/>
    <path id="b" d="M23 25a3 3 0 1 1 5 0v14h-5V25zm0-10c0-2 1-2 2-2h1a2 2 0 1 1 0 4h-1l-2-2z"/>
  </defs>
  <g fill="none" fill-rule="evenodd">
    <g style="mix-blend-mode:difference">
      <use fill="#FFF" style="mix-blend-mode:difference" xlink:href="#a"/>
      <circle cx="25" cy="25" r="24" stroke="#323437" stroke-width="2"/>
    </g>
    <use fill="#323437" xlink:href="#b"/>
    <path stroke="#323437" d="M23 38h5V25l-2-2c-2 0-3 1-3 2v13zm0-23l2 1h1a2 2 0 1 0 0-3h-1l-2 2z"/>
  </g>
</svg>
